<?xml version="1.0" encoding="UTF-8"?>
<svg xmlns="http://www.w3.org/2000/svg" xmlns:xlink="http://www.w3.org/1999/xlink" width="24px" height="24px" viewBox="0 0 24 24" version="1.1">
<g id="surface1">
<path style=" stroke:none;fill-rule:nonzero;fill:rgb(53.333333%,81.176471%,69.019608%);fill-opacity:1;" d="M 8.25 23.398438 L 8.25 16.199219 L 15.75 16.199219 L 15.75 19.125 C 15.75 21.449219 13.875 23.398438 11.476562 23.398438 Z M 8.25 23.398438 "/>
<path style=" stroke:none;fill-rule:nonzero;fill:rgb(94.901961%,78.823529%,29.803922%);fill-opacity:1;" d="M 15.898438 16.050781 L 15.898438 8.398438 L 23.398438 8.398438 L 23.398438 11.773438 C 23.398438 14.101562 21.523438 16.050781 19.125 16.050781 Z M 15.898438 16.050781 "/>
<path style=" stroke:none;fill-rule:nonzero;fill:rgb(74.117647%,51.372549%,80.784314%);fill-opacity:1;" d="M 15.75 8.398438 L 8.25 8.398438 L 8.25 15.976562 L 15.75 15.976562 Z M 15.75 8.398438 "/>
<path style=" stroke:none;fill-rule:nonzero;fill:rgb(25.098039%,74.509804%,53.333333%);fill-opacity:1;" d="M 0.601562 8.25 L 0.601562 4.875 C 0.601562 2.550781 2.476562 0.601562 4.875 0.601562 L 8.101562 0.601562 L 8.101562 8.25 Z M 0.601562 8.25 "/>
<path style=" stroke:none;fill-rule:nonzero;fill:rgb(100%,45.490196%,45.490196%);fill-opacity:1;" d="M 15.898438 8.25 L 15.898438 0.601562 L 19.125 0.601562 C 21.449219 0.601562 23.398438 2.476562 23.398438 4.875 L 23.398438 8.25 Z M 15.898438 8.25 "/>
<path style=" stroke:none;fill-rule:nonzero;fill:rgb(40.392157%,46.27451%,97.647059%);fill-opacity:1;" d="M 15.75 0.601562 L 8.25 0.601562 L 8.25 8.175781 L 15.75 8.175781 Z M 15.75 0.601562 "/>
<path style=" stroke:none;fill-rule:nonzero;fill:rgb(21.568627%,76.078431%,88.627451%);fill-opacity:1;" d="M 0.601562 19.125 L 0.601562 16.199219 L 8.101562 16.199219 L 8.101562 23.398438 L 4.875 23.398438 C 2.476562 23.398438 0.601562 21.523438 0.601562 19.125 Z M 0.601562 19.125 "/>
<path style=" stroke:none;fill-rule:nonzero;fill:rgb(94.901961%,60%,29.019608%);fill-opacity:1;" d="M 8.101562 8.398438 L 0.601562 8.398438 L 0.601562 15.976562 L 8.101562 15.976562 Z M 8.101562 8.398438 "/>
<path style=" stroke:none;fill-rule:evenodd;fill:rgb(18.431373%,18.431373%,22.745098%);fill-opacity:1;" d="M 0 19.125 L 0 4.875 C 0 2.175781 2.175781 0 4.875 0 L 19.125 0 C 21.824219 0 24 2.175781 24 4.875 L 24 11.773438 C 24 14.476562 21.824219 16.648438 19.125 16.648438 L 16.351562 16.648438 L 16.351562 19.125 C 16.351562 21.824219 14.175781 24 11.476562 24 L 4.875 24 C 2.175781 24 0 21.824219 0 19.125 Z M 7.5 7.574219 L 1.273438 7.574219 L 1.273438 4.800781 C 1.273438 2.851562 2.851562 1.199219 4.875 1.199219 L 7.5 1.199219 Z M 19.125 15.449219 L 16.5 15.449219 L 16.5 9 L 22.726562 9 L 22.726562 11.851562 C 22.726562 13.800781 21.148438 15.449219 19.125 15.449219 Z M 11.476562 22.800781 L 8.851562 22.800781 L 8.851562 16.875 L 15.074219 16.875 L 15.074219 19.199219 C 15.074219 21.148438 13.5 22.800781 11.476562 22.800781 Z M 8.851562 15.449219 L 15.074219 15.449219 L 15.074219 9 L 8.851562 9 Z M 16.5 7.574219 L 22.726562 7.574219 L 22.726562 4.875 C 22.726562 2.851562 21.074219 1.273438 19.125 1.273438 L 16.5 1.273438 Z M 15.074219 7.574219 L 8.851562 7.574219 L 8.851562 1.199219 L 15.074219 1.199219 Z M 1.199219 16.800781 L 1.199219 19.125 C 1.199219 21.148438 2.851562 22.726562 4.800781 22.726562 L 7.5 22.726562 L 7.5 16.800781 Z M 7.5 15.449219 L 1.199219 15.449219 L 1.199219 9 L 7.5 9 Z M 7.5 15.449219 "/>
</g>
</svg>
